<?xml version="1.0" encoding="UTF-8"?>
<svg id="Camada_1" data-name="Camada 1" xmlns="http://www.w3.org/2000/svg" viewBox="0 0 679.95 360.49">
  <defs>
    <style>
      .cls-1 {
        fill: #f4f2fa;
      }
    </style>
  </defs>
  <g>
    <path class="cls-1" d="M230.88,298.31v-31.62h3.99v15.72l-.75,5.09.75,5.14v5.67h-3.99ZM241.95,298.75c-1.59,0-3.03-.33-4.32-1-1.28-.66-2.31-1.59-3.08-2.77-.77-1.18-1.2-2.52-1.28-4.03v-6.33c.09-1.53.52-2.88,1.31-4.05.78-1.17,1.82-2.08,3.1-2.75s2.71-1,4.27-1c1.92,0,3.65.49,5.2,1.46,1.55.97,2.77,2.29,3.65,3.94s1.33,3.51,1.33,5.58-.44,3.93-1.33,5.58-2.1,2.96-3.65,3.92-3.28,1.44-5.2,1.44ZM241.28,294.99c1.33,0,2.49-.31,3.5-.93,1-.62,1.8-1.47,2.39-2.55.59-1.08.89-2.33.89-3.74s-.3-2.63-.89-3.72c-.59-1.09-1.39-1.94-2.39-2.55-1-.6-2.16-.91-3.45-.91s-2.5.3-3.5.91c-1,.61-1.79,1.46-2.35,2.55-.56,1.09-.84,2.35-.84,3.76s.27,2.62.82,3.7c.55,1.08,1.33,1.93,2.35,2.55s2.18.93,3.48.93Z"/>
    <path class="cls-1" d="M263.29,298.31v-21.03h3.99v21.03h-3.99ZM267.27,286.31l-1.51-.66c0-2.69.62-4.83,1.86-6.42,1.24-1.59,3.03-2.39,5.36-2.39,1.06,0,2.02.18,2.88.55.86.37,1.65.98,2.39,1.84l-2.61,2.7c-.44-.47-.93-.81-1.46-1.02-.53-.21-1.15-.31-1.86-.31-1.48,0-2.69.47-3.63,1.42s-1.42,2.38-1.42,4.29Z"/>
    <path class="cls-1" d="M295.97,298.75c-1.92,0-3.66-.48-5.22-1.44-1.56-.96-2.8-2.27-3.7-3.92s-1.35-3.51-1.35-5.58.45-3.93,1.35-5.58,2.13-2.97,3.68-3.94c1.55-.97,3.3-1.46,5.25-1.46,1.59,0,3.02.33,4.27,1,1.25.66,2.27,1.58,3.03,2.75.77,1.17,1.2,2.52,1.28,4.05v6.33c-.09,1.51-.51,2.85-1.26,4.03-.75,1.18-1.76,2.1-3.01,2.77-1.25.66-2.69,1-4.32,1ZM296.63,294.99c1.98,0,3.57-.67,4.78-2.01,1.21-1.34,1.82-3.06,1.82-5.16,0-1.45-.27-2.71-.82-3.79-.55-1.08-1.32-1.92-2.32-2.52-1-.6-2.17-.91-3.5-.91s-2.5.31-3.52.93c-1.02.62-1.82,1.47-2.39,2.55-.58,1.08-.86,2.31-.86,3.7s.29,2.67.86,3.74c.58,1.08,1.38,1.93,2.41,2.55,1.03.62,2.21.93,3.54.93ZM302.96,298.31v-5.67l.75-5.14-.75-5.09v-5.14h4.03v21.03h-4.03Z"/>
    <path class="cls-1" d="M319.43,298.31v-21.03h3.99v21.03h-3.99ZM334.31,298.31v-12.27c0-1.59-.5-2.91-1.51-3.94-1-1.03-2.3-1.55-3.9-1.55-1.06,0-2.01.24-2.83.71-.83.47-1.48,1.12-1.95,1.95-.47.83-.71,1.77-.71,2.83l-1.64-.93c0-1.59.35-3.01,1.06-4.25s1.7-2.22,2.97-2.94c1.27-.72,2.7-1.08,4.29-1.08s3,.4,4.23,1.2c1.22.8,2.19,1.84,2.9,3.12s1.06,2.65,1.06,4.1v13.06h-3.99Z"/>
    <path class="cls-1" d="M359.24,298.75c-1.95,0-3.69-.48-5.23-1.44s-2.75-2.27-3.65-3.92-1.35-3.51-1.35-5.58.45-3.93,1.35-5.58,2.12-2.97,3.65-3.94c1.54-.97,3.28-1.46,5.23-1.46,1.56,0,2.98.33,4.25,1s2.29,1.58,3.08,2.75c.78,1.17,1.22,2.52,1.31,4.05v6.33c-.09,1.51-.52,2.85-1.28,4.03s-1.79,2.1-3.05,2.77c-1.27.66-2.7,1-4.29,1ZM359.91,294.99c1.33,0,2.49-.31,3.48-.93.99-.62,1.76-1.47,2.33-2.55.56-1.08.84-2.31.84-3.7s-.29-2.7-.86-3.76c-.58-1.06-1.36-1.9-2.35-2.52-.99-.62-2.15-.93-3.48-.93s-2.49.31-3.5.93-1.79,1.47-2.37,2.55c-.58,1.08-.86,2.31-.86,3.7s.29,2.67.86,3.74c.58,1.08,1.37,1.93,2.39,2.55s2.19.93,3.52.93ZM370.31,298.31h-4.03v-5.67l.75-5.14-.75-5.09v-15.72h4.03v31.62Z"/>
    <path class="cls-1" d="M384.79,273.07c-.74,0-1.34-.24-1.82-.73-.47-.49-.71-1.1-.71-1.84s.24-1.31.71-1.79c.47-.49,1.08-.73,1.82-.73s1.34.24,1.82.73c.47.49.71,1.08.71,1.79s-.24,1.35-.71,1.84c-.47.49-1.08.73-1.82.73ZM382.8,298.31v-21.03h3.99v21.03h-3.99Z"/>
    <path class="cls-1" d="M399.31,298.31v-21.03h3.99v21.03h-3.99ZM414.19,298.31v-12.27c0-1.59-.5-2.91-1.51-3.94-1-1.03-2.3-1.55-3.9-1.55-1.06,0-2.01.24-2.83.71-.83.47-1.48,1.12-1.95,1.95-.47.83-.71,1.77-.71,2.83l-1.64-.93c0-1.59.35-3.01,1.06-4.25.71-1.24,1.7-2.22,2.97-2.94,1.27-.72,2.7-1.08,4.29-1.08s3,.4,4.23,1.2,2.19,1.84,2.9,3.12c.71,1.28,1.06,2.65,1.06,4.1v13.06h-3.99Z"/>
    <path class="cls-1" d="M438.94,297.95c-1.92,0-3.64-.46-5.16-1.37-1.52-.91-2.72-2.18-3.61-3.79-.88-1.61-1.33-3.42-1.33-5.42s.44-3.8,1.33-5.38c.89-1.58,2.09-2.83,3.61-3.76,1.52-.93,3.24-1.39,5.16-1.39,1.65,0,3.11.33,4.38.97,1.27.65,2.28,1.56,3.03,2.72s1.16,2.53,1.22,4.1v5.58c-.09,1.54-.51,2.89-1.26,4.05-.75,1.17-1.76,2.07-3.03,2.72-1.27.65-2.72.97-4.34.97ZM438.94,307.56c-2.16,0-4.07-.4-5.73-1.2s-3-1.92-4.01-3.37l2.57-2.61c.86,1.09,1.87,1.93,3.05,2.5,1.18.58,2.58.86,4.21.86,2.15,0,3.86-.57,5.11-1.71,1.25-1.14,1.88-2.66,1.88-4.58v-5.22l.71-4.74-.71-4.69v-5.54h3.99v20.19c0,2.01-.46,3.76-1.4,5.27-.93,1.51-2.23,2.69-3.9,3.54s-3.59,1.28-5.78,1.28ZM439.74,294.19c1.3,0,2.44-.28,3.43-.84.99-.56,1.75-1.35,2.28-2.37.53-1.02.8-2.21.8-3.56s-.27-2.55-.82-3.56c-.55-1.02-1.31-1.82-2.28-2.39-.97-.58-2.13-.86-3.45-.86s-2.5.29-3.5.86c-1,.58-1.79,1.37-2.37,2.39-.58,1.02-.86,2.19-.86,3.52s.29,2.51.86,3.54c.58,1.03,1.37,1.84,2.39,2.41,1.02.58,2.19.86,3.52.86Z"/>
  </g>
  <g>
    <path class="cls-1" d="M282.8,230.54c-12.36,0-23.35-2.79-32.99-8.39-9.64-5.59-17.21-13.44-22.71-23.54-5.5-10.1-8.25-21.95-8.25-35.54s2.75-25.44,8.25-35.54c5.5-10.1,13.07-17.95,22.71-23.54,9.64-5.59,20.64-8.39,32.99-8.39s23.35,2.8,32.99,8.39c9.64,5.59,17.21,13.44,22.71,23.54,5.5,10.1,8.25,21.95,8.25,35.54s-2.75,25.44-8.25,35.54c-5.5,10.1-13.07,17.95-22.71,23.54-9.64,5.59-20.64,8.39-32.99,8.39ZM282.8,207.56c8.65,0,15.88-1.91,21.69-5.75,5.81-3.83,10.16-9.1,13.07-15.8s4.36-14.35,4.36-22.94-1.45-16.23-4.36-22.94c-2.9-6.7-7.26-11.97-13.07-15.8-5.81-3.83-13.04-5.75-21.69-5.75s-15.88,1.92-21.69,5.75c-5.81,3.83-10.16,9.1-13.07,15.8-2.9,6.7-4.36,14.35-4.36,22.94s1.45,16.23,4.36,22.94c2.9,6.7,7.26,11.97,13.07,15.8,5.81,3.83,13.04,5.75,21.69,5.75Z"/>
    <path class="cls-1" d="M367.51,227.95V98.2h47.45c8.96,0,16.79,1.42,23.49,4.26,6.7,2.84,11.91,7.17,15.62,12.97,3.71,5.81,5.56,13.16,5.56,22.06,0,9.51-2.02,17.07-6.07,22.66-4.05,5.59-9.38,10.03-15.99,13.3l29.29,54.49h-26.51l-25.02-48.19h-24.1v48.19h-23.73ZM391.23,159.92h17.42c9.76,0,16.56-1.99,20.39-5.98,3.83-3.99,5.75-9.04,5.75-15.15,0-6.49-1.89-11.57-5.65-15.25-3.77-3.67-10.29-5.51-19.56-5.51h-18.35v41.89Z"/>
    <path class="cls-1" d="M535.81,230.54c-12.17,0-22.23-2.41-30.17-7.23-7.94-4.82-13.86-11.58-17.75-20.29-3.89-8.71-5.84-18.94-5.84-30.68v-74.14h23.73v68.03c0,6.18.4,11.82,1.21,16.91.8,5.1,2.27,9.48,4.4,13.16s5.17,6.5,9.13,8.48c3.95,1.98,9.05,2.97,15.29,2.97s11.34-.99,15.29-2.97c3.95-1.98,7-4.8,9.13-8.48,2.13-3.68,3.6-8.06,4.4-13.16s1.21-10.74,1.21-16.91v-68.03h23.72v74.14c0,11.74-1.95,21.96-5.84,30.68-3.89,8.71-9.81,15.48-17.75,20.29-7.94,4.82-18,7.23-30.17,7.23Z"/>
    <polygon class="cls-1" points="174.37 98.2 174.37 159.92 115.05 188.96 115.05 98.2 91.33 98.2 91.33 227.95 115.05 227.95 115.05 211.2 174.37 182.96 174.37 227.95 198.09 227.95 198.09 98.2 174.37 98.2"/>
  </g>
</svg>